<svg width="174" height="106" viewBox="0 0 174 106" fill="none" xmlns="http://www.w3.org/2000/svg">
<rect opacity="0.1" x="1" y="1" width="172" height="104" rx="19" stroke="#0D3B66" stroke-width="2"/>
<path d="M36 26L26 38H35L34 46L44 34H35L36 26Z" stroke="#0D3B66" stroke-width="2" stroke-linecap="round" stroke-linejoin="round"/>
<path d="M62 26L52 38H61L60 46L70 34H61L62 26Z" stroke="#0D3B66" stroke-width="2" stroke-linecap="round" stroke-linejoin="round"/>
<path d="M88 26L78 38H87L86 46L96 34H87L88 26Z" stroke="#0D3B66" stroke-width="2" stroke-linecap="round" stroke-linejoin="round"/>
<path d="M114 26L104 38H113L112 46L122 34H113L114 26Z" stroke="#0D3B66" stroke-width="2" stroke-linecap="round" stroke-linejoin="round"/>
<path opacity="0.2" d="M140 26L130 38H139L138 46L148 34H139L140 26Z" fill="#0D3B66"/>
<path d="M28.376 77.126C28.1 77.126 27.884 77.048 27.728 76.892C27.584 76.736 27.512 76.52 27.512 76.244V65.066C27.512 64.778 27.59 64.562 27.746 64.418C27.902 64.262 28.112 64.184 28.376 64.184C28.628 64.184 28.82 64.232 28.952 64.328C29.096 64.412 29.228 64.568 29.348 64.796L34.064 73.598H33.506L38.204 64.796C38.324 64.568 38.45 64.412 38.582 64.328C38.714 64.232 38.906 64.184 39.158 64.184C39.422 64.184 39.626 64.262 39.77 64.418C39.914 64.562 39.986 64.778 39.986 65.066V76.244C39.986 76.52 39.914 76.736 39.77 76.892C39.638 77.048 39.434 77.126 39.158 77.126C38.882 77.126 38.672 77.048 38.528 76.892C38.384 76.736 38.312 76.52 38.312 76.244V66.956H38.708L34.532 74.678C34.436 74.858 34.334 74.99 34.226 75.074C34.118 75.158 33.968 75.2 33.776 75.2C33.584 75.2 33.428 75.158 33.308 75.074C33.188 74.978 33.08 74.846 32.984 74.678L28.772 66.938H29.204V76.244C29.204 76.52 29.132 76.736 28.988 76.892C28.856 77.048 28.652 77.126 28.376 77.126ZM45.9139 77.162C45.2059 77.162 44.6119 77.03 44.1319 76.766C43.6639 76.502 43.3099 76.112 43.0699 75.596C42.8419 75.068 42.7279 74.408 42.7279 73.616V69.008C42.7279 68.696 42.8059 68.468 42.9619 68.324C43.1179 68.168 43.3399 68.09 43.6279 68.09C43.9159 68.09 44.1379 68.168 44.2939 68.324C44.4619 68.468 44.5459 68.696 44.5459 69.008V73.634C44.5459 74.342 44.6899 74.864 44.9779 75.2C45.2659 75.536 45.7219 75.704 46.3459 75.704C47.0299 75.704 47.5819 75.476 48.0019 75.02C48.4339 74.552 48.6499 73.94 48.6499 73.184V69.008C48.6499 68.696 48.7279 68.468 48.8839 68.324C49.0399 68.168 49.2679 68.09 49.5679 68.09C49.8559 68.09 50.0779 68.168 50.2339 68.324C50.3899 68.468 50.4679 68.696 50.4679 69.008V76.208C50.4679 76.82 50.1739 77.126 49.5859 77.126C49.3099 77.126 49.0939 77.048 48.9379 76.892C48.7819 76.724 48.7039 76.496 48.7039 76.208V74.678L48.9379 75.074C48.6979 75.746 48.3139 76.262 47.7859 76.622C47.2579 76.982 46.6339 77.162 45.9139 77.162ZM53.93 77.108C53.642 77.108 53.42 77.024 53.264 76.856C53.108 76.676 53.03 76.43 53.03 76.118V69.098C53.03 68.786 53.108 68.546 53.264 68.378C53.42 68.21 53.642 68.126 53.93 68.126C54.218 68.126 54.44 68.21 54.596 68.378C54.764 68.546 54.848 68.786 54.848 69.098V76.118C54.848 76.43 54.77 76.676 54.614 76.856C54.458 77.024 54.23 77.108 53.93 77.108ZM53.93 66.254C53.57 66.254 53.288 66.164 53.084 65.984C52.892 65.804 52.796 65.552 52.796 65.228C52.796 64.892 52.892 64.64 53.084 64.472C53.288 64.292 53.57 64.202 53.93 64.202C54.29 64.202 54.566 64.292 54.758 64.472C54.962 64.64 55.064 64.892 55.064 65.228C55.064 65.552 54.962 65.804 54.758 65.984C54.566 66.164 54.29 66.254 53.93 66.254ZM61.1509 77.162C60.4309 77.162 59.8249 77.036 59.3329 76.784C58.8409 76.532 58.4749 76.16 58.2349 75.668C57.9949 75.176 57.8749 74.576 57.8749 73.868V69.62H56.7949C56.5549 69.62 56.3689 69.56 56.2369 69.44C56.1049 69.308 56.0389 69.134 56.0389 68.918C56.0389 68.69 56.1049 68.516 56.2369 68.396C56.3689 68.276 56.5549 68.216 56.7949 68.216H57.8749V66.362C57.8749 66.062 57.9529 65.834 58.1089 65.678C58.2769 65.522 58.5049 65.444 58.7929 65.444C59.0809 65.444 59.3029 65.522 59.4589 65.678C59.6149 65.834 59.6929 66.062 59.6929 66.362V68.216H61.7989C62.0389 68.216 62.2249 68.276 62.3569 68.396C62.4889 68.516 62.5549 68.69 62.5549 68.918C62.5549 69.134 62.4889 69.308 62.3569 69.44C62.2249 69.56 62.0389 69.62 61.7989 69.62H59.6929V73.724C59.6929 74.36 59.8249 74.84 60.0889 75.164C60.3649 75.488 60.8089 75.65 61.4209 75.65C61.6369 75.65 61.8229 75.632 61.9789 75.596C62.1469 75.548 62.2849 75.518 62.3929 75.506C62.5249 75.506 62.6329 75.554 62.7169 75.65C62.8009 75.734 62.8429 75.902 62.8429 76.154C62.8429 76.334 62.8069 76.502 62.7349 76.658C62.6749 76.814 62.5609 76.916 62.3929 76.964C62.2489 77.012 62.0509 77.054 61.7989 77.09C61.5589 77.138 61.3429 77.162 61.1509 77.162ZM66.7891 77.162C66.1771 77.162 65.6251 77.042 65.1331 76.802C64.6531 76.562 64.2751 76.238 63.9991 75.83C63.7231 75.422 63.5851 74.96 63.5851 74.444C63.5851 73.796 63.7471 73.286 64.0711 72.914C64.4071 72.53 64.9531 72.26 65.7091 72.104C66.4771 71.936 67.5091 71.852 68.8051 71.852H69.6511V72.968H68.8231C67.9591 72.968 67.2751 73.01 66.7711 73.094C66.2671 73.178 65.9071 73.322 65.6911 73.526C65.4871 73.718 65.3851 73.988 65.3851 74.336C65.3851 74.792 65.5411 75.164 65.8531 75.452C66.1651 75.728 66.5971 75.866 67.1491 75.866C67.5931 75.866 67.9831 75.764 68.3191 75.56C68.6551 75.344 68.9191 75.056 69.1111 74.696C69.3151 74.336 69.4171 73.922 69.4171 73.454V71.384C69.4171 70.7 69.2731 70.208 68.9851 69.908C68.6971 69.608 68.2231 69.458 67.5631 69.458C67.1791 69.458 66.7771 69.506 66.3571 69.602C65.9491 69.698 65.5231 69.86 65.0791 70.088C64.8751 70.184 64.7011 70.214 64.5571 70.178C64.4131 70.142 64.2991 70.064 64.2151 69.944C64.1311 69.812 64.0831 69.674 64.0711 69.53C64.0711 69.374 64.1071 69.224 64.1791 69.08C64.2631 68.936 64.4011 68.828 64.5931 68.756C65.1211 68.504 65.6431 68.324 66.1591 68.216C66.6751 68.108 67.1611 68.054 67.6171 68.054C68.4211 68.054 69.0811 68.18 69.5971 68.432C70.1251 68.684 70.5151 69.068 70.7671 69.584C71.0191 70.1 71.1451 70.766 71.1451 71.582V76.208C71.1451 76.496 71.0731 76.724 70.9291 76.892C70.7851 77.048 70.5751 77.126 70.2991 77.126C70.0351 77.126 69.8251 77.048 69.6691 76.892C69.5131 76.724 69.4351 76.496 69.4351 76.208V75.038H69.5971C69.5011 75.482 69.3211 75.866 69.0571 76.19C68.8051 76.502 68.4871 76.742 68.1031 76.91C67.7191 77.078 67.2811 77.162 66.7891 77.162ZM82.5172 77.162C81.5572 77.162 80.7292 76.982 80.0332 76.622C79.3492 76.25 78.8152 75.728 78.4312 75.056C78.0592 74.372 77.8732 73.562 77.8732 72.626C77.8732 71.714 78.0592 70.916 78.4312 70.232C78.8032 69.548 79.3132 69.014 79.9612 68.63C80.6092 68.246 81.3472 68.054 82.1752 68.054C82.7872 68.054 83.3332 68.156 83.8132 68.36C84.2932 68.552 84.7012 68.84 85.0372 69.224C85.3852 69.596 85.6432 70.052 85.8112 70.592C85.9912 71.132 86.0812 71.738 86.0812 72.41C86.0812 72.614 86.0212 72.77 85.9012 72.878C85.7812 72.974 85.6012 73.022 85.3612 73.022H79.3132V71.906H84.8572L84.5512 72.158C84.5512 71.558 84.4612 71.048 84.2812 70.628C84.1132 70.208 83.8552 69.89 83.5072 69.674C83.1712 69.446 82.7512 69.332 82.2472 69.332C81.6832 69.332 81.2032 69.464 80.8072 69.728C80.4232 69.992 80.1292 70.358 79.9252 70.826C79.7212 71.294 79.6192 71.84 79.6192 72.464V72.572C79.6192 73.628 79.8652 74.426 80.3572 74.966C80.8612 75.494 81.5872 75.758 82.5352 75.758C82.8952 75.758 83.2732 75.71 83.6692 75.614C84.0772 75.518 84.4612 75.356 84.8212 75.128C85.0252 75.008 85.2052 74.954 85.3612 74.966C85.5292 74.978 85.6612 75.032 85.7572 75.128C85.8652 75.224 85.9312 75.344 85.9552 75.488C85.9792 75.632 85.9552 75.782 85.8832 75.938C85.8112 76.082 85.6852 76.214 85.5052 76.334C85.0972 76.61 84.6232 76.82 84.0832 76.964C83.5432 77.096 83.0212 77.162 82.5172 77.162ZM88.9632 77.126C88.6752 77.126 88.4532 77.048 88.2972 76.892C88.1412 76.724 88.0632 76.496 88.0632 76.208V69.008C88.0632 68.708 88.1412 68.48 88.2972 68.324C88.4532 68.168 88.6692 68.09 88.9452 68.09C89.2332 68.09 89.4492 68.168 89.5932 68.324C89.7492 68.48 89.8272 68.708 89.8272 69.008V70.412L89.6292 70.088C89.8932 69.416 90.3072 68.912 90.8712 68.576C91.4352 68.228 92.0832 68.054 92.8152 68.054C93.5112 68.054 94.0872 68.186 94.5432 68.45C95.0112 68.702 95.3592 69.092 95.5872 69.62C95.8152 70.136 95.9292 70.79 95.9292 71.582V76.208C95.9292 76.496 95.8512 76.724 95.6952 76.892C95.5392 77.048 95.3172 77.126 95.0292 77.126C94.7292 77.126 94.5012 77.048 94.3452 76.892C94.1892 76.724 94.1112 76.496 94.1112 76.208V71.69C94.1112 70.934 93.9612 70.382 93.6612 70.034C93.3732 69.686 92.9172 69.512 92.2932 69.512C91.5612 69.512 90.9732 69.74 90.5292 70.196C90.0972 70.652 89.8812 71.264 89.8812 72.032V76.208C89.8812 76.82 89.5752 77.126 88.9632 77.126ZM102.556 77.162C101.596 77.162 100.768 76.982 100.072 76.622C99.3883 76.25 98.8543 75.728 98.4703 75.056C98.0983 74.372 97.9123 73.562 97.9123 72.626C97.9123 71.714 98.0983 70.916 98.4703 70.232C98.8423 69.548 99.3523 69.014 100 68.63C100.648 68.246 101.386 68.054 102.214 68.054C102.826 68.054 103.372 68.156 103.852 68.36C104.332 68.552 104.74 68.84 105.076 69.224C105.424 69.596 105.682 70.052 105.85 70.592C106.03 71.132 106.12 71.738 106.12 72.41C106.12 72.614 106.06 72.77 105.94 72.878C105.82 72.974 105.64 73.022 105.4 73.022H99.3523V71.906H104.896L104.59 72.158C104.59 71.558 104.5 71.048 104.32 70.628C104.152 70.208 103.894 69.89 103.546 69.674C103.21 69.446 102.79 69.332 102.286 69.332C101.722 69.332 101.242 69.464 100.846 69.728C100.462 69.992 100.168 70.358 99.9643 70.826C99.7603 71.294 99.6583 71.84 99.6583 72.464V72.572C99.6583 73.628 99.9043 74.426 100.396 74.966C100.9 75.494 101.626 75.758 102.574 75.758C102.934 75.758 103.312 75.71 103.708 75.614C104.116 75.518 104.5 75.356 104.86 75.128C105.064 75.008 105.244 74.954 105.4 74.966C105.568 74.978 105.7 75.032 105.796 75.128C105.904 75.224 105.97 75.344 105.994 75.488C106.018 75.632 105.994 75.782 105.922 75.938C105.85 76.082 105.724 76.214 105.544 76.334C105.136 76.61 104.662 76.82 104.122 76.964C103.582 77.096 103.06 77.162 102.556 77.162ZM109.02 77.126C108.72 77.126 108.492 77.048 108.336 76.892C108.18 76.724 108.102 76.496 108.102 76.208V69.008C108.102 68.708 108.18 68.48 108.336 68.324C108.492 68.168 108.708 68.09 108.984 68.09C109.272 68.09 109.488 68.168 109.632 68.324C109.788 68.48 109.866 68.708 109.866 69.008V70.322H109.686C109.878 69.602 110.232 69.056 110.748 68.684C111.264 68.312 111.924 68.096 112.728 68.036C112.944 68.024 113.112 68.078 113.232 68.198C113.364 68.318 113.436 68.504 113.448 68.756C113.472 69.008 113.418 69.212 113.286 69.368C113.154 69.512 112.95 69.596 112.674 69.62L112.332 69.656C111.552 69.728 110.958 69.974 110.55 70.394C110.142 70.814 109.938 71.39 109.938 72.122V76.208C109.938 76.496 109.86 76.724 109.704 76.892C109.56 77.048 109.332 77.126 109.02 77.126ZM118.672 80.402C118.024 80.402 117.394 80.336 116.782 80.204C116.182 80.072 115.636 79.856 115.144 79.556C114.964 79.46 114.844 79.34 114.784 79.196C114.724 79.064 114.706 78.926 114.73 78.782C114.766 78.638 114.832 78.512 114.928 78.404C115.024 78.296 115.138 78.224 115.27 78.188C115.414 78.152 115.564 78.176 115.72 78.26C116.248 78.548 116.746 78.74 117.214 78.836C117.694 78.944 118.138 78.998 118.546 78.998C119.386 78.998 120.016 78.782 120.436 78.35C120.856 77.93 121.066 77.306 121.066 76.478V74.642H121.228C121.048 75.302 120.67 75.824 120.094 76.208C119.518 76.592 118.852 76.784 118.096 76.784C117.304 76.784 116.614 76.604 116.026 76.244C115.438 75.872 114.982 75.362 114.658 74.714C114.334 74.054 114.172 73.286 114.172 72.41C114.172 71.75 114.262 71.156 114.442 70.628C114.634 70.1 114.898 69.644 115.234 69.26C115.582 68.876 115.996 68.582 116.476 68.378C116.968 68.162 117.508 68.054 118.096 68.054C118.864 68.054 119.53 68.246 120.094 68.63C120.67 69.014 121.042 69.536 121.21 70.196L121.03 70.502V69.008C121.03 68.708 121.108 68.48 121.264 68.324C121.432 68.168 121.654 68.09 121.93 68.09C122.218 68.09 122.44 68.168 122.596 68.324C122.752 68.48 122.83 68.708 122.83 69.008V76.262C122.83 77.63 122.476 78.662 121.768 79.358C121.06 80.054 120.028 80.402 118.672 80.402ZM118.528 75.362C119.056 75.362 119.506 75.242 119.878 75.002C120.25 74.762 120.538 74.42 120.742 73.976C120.946 73.532 121.048 73.01 121.048 72.41C121.048 71.51 120.82 70.796 120.364 70.268C119.92 69.74 119.308 69.476 118.528 69.476C118.012 69.476 117.568 69.596 117.196 69.836C116.824 70.076 116.53 70.418 116.314 70.862C116.11 71.294 116.008 71.81 116.008 72.41C116.008 73.322 116.236 74.042 116.692 74.57C117.148 75.098 117.76 75.362 118.528 75.362ZM126.282 77.108C125.994 77.108 125.772 77.024 125.616 76.856C125.46 76.676 125.382 76.43 125.382 76.118V69.098C125.382 68.786 125.46 68.546 125.616 68.378C125.772 68.21 125.994 68.126 126.282 68.126C126.57 68.126 126.792 68.21 126.948 68.378C127.116 68.546 127.2 68.786 127.2 69.098V76.118C127.2 76.43 127.122 76.676 126.966 76.856C126.81 77.024 126.582 77.108 126.282 77.108ZM126.282 66.254C125.922 66.254 125.64 66.164 125.436 65.984C125.244 65.804 125.148 65.552 125.148 65.228C125.148 64.892 125.244 64.64 125.436 64.472C125.64 64.292 125.922 64.202 126.282 64.202C126.642 64.202 126.918 64.292 127.11 64.472C127.314 64.64 127.416 64.892 127.416 65.228C127.416 65.552 127.314 65.804 127.11 65.984C126.918 66.164 126.642 66.254 126.282 66.254ZM132.566 77.162C131.954 77.162 131.402 77.042 130.91 76.802C130.43 76.562 130.052 76.238 129.776 75.83C129.5 75.422 129.362 74.96 129.362 74.444C129.362 73.796 129.524 73.286 129.848 72.914C130.184 72.53 130.73 72.26 131.486 72.104C132.254 71.936 133.286 71.852 134.582 71.852H135.428V72.968H134.6C133.736 72.968 133.052 73.01 132.548 73.094C132.044 73.178 131.684 73.322 131.468 73.526C131.264 73.718 131.162 73.988 131.162 74.336C131.162 74.792 131.318 75.164 131.63 75.452C131.942 75.728 132.374 75.866 132.926 75.866C133.37 75.866 133.76 75.764 134.096 75.56C134.432 75.344 134.696 75.056 134.888 74.696C135.092 74.336 135.194 73.922 135.194 73.454V71.384C135.194 70.7 135.05 70.208 134.762 69.908C134.474 69.608 134 69.458 133.34 69.458C132.956 69.458 132.554 69.506 132.134 69.602C131.726 69.698 131.3 69.86 130.856 70.088C130.652 70.184 130.478 70.214 130.334 70.178C130.19 70.142 130.076 70.064 129.992 69.944C129.908 69.812 129.86 69.674 129.848 69.53C129.848 69.374 129.884 69.224 129.956 69.08C130.04 68.936 130.178 68.828 130.37 68.756C130.898 68.504 131.42 68.324 131.936 68.216C132.452 68.108 132.938 68.054 133.394 68.054C134.198 68.054 134.858 68.18 135.374 68.432C135.902 68.684 136.292 69.068 136.544 69.584C136.796 70.1 136.922 70.766 136.922 71.582V76.208C136.922 76.496 136.85 76.724 136.706 76.892C136.562 77.048 136.352 77.126 136.076 77.126C135.812 77.126 135.602 77.048 135.446 76.892C135.29 76.724 135.212 76.496 135.212 76.208V75.038H135.374C135.278 75.482 135.098 75.866 134.834 76.19C134.582 76.502 134.264 76.742 133.88 76.91C133.496 77.078 133.058 77.162 132.566 77.162Z" fill="#0D3B66"/>
</svg>
