<svg width="189" height="106" viewBox="0 0 189 106" fill="none" xmlns="http://www.w3.org/2000/svg">
<rect opacity="0.1" x="1" y="1" width="187" height="104" rx="19" stroke="#0D3B66" stroke-width="2"/>
<path d="M34 27H31C30.4696 27 29.9609 27.2107 29.5858 27.5858C29.2107 27.9609 29 28.4696 29 29V32M47 32V29C47 28.4696 46.7893 27.9609 46.4142 27.5858C46.0391 27.2107 45.5304 27 45 27H42M42 45H45C45.5304 45 46.0391 44.7893 46.4142 44.4142C46.7893 44.0391 47 43.5304 47 43V40M29 40V43C29 43.5304 29.2107 44.0391 29.5858 44.4142C29.9609 44.7893 30.4696 45 31 45H34" stroke="#0D3B66" stroke-width="2" stroke-linecap="round" stroke-linejoin="round"/>
<path d="M27.404 77.126C27.164 77.126 26.972 77.072 26.828 76.964C26.684 76.856 26.6 76.712 26.576 76.532C26.552 76.352 26.588 76.148 26.684 75.92L31.562 64.976C31.682 64.688 31.832 64.484 32.012 64.364C32.204 64.244 32.414 64.184 32.642 64.184C32.858 64.184 33.056 64.244 33.236 64.364C33.428 64.484 33.584 64.688 33.704 64.976L38.582 75.92C38.69 76.148 38.732 76.358 38.708 76.55C38.684 76.73 38.606 76.874 38.474 76.982C38.342 77.078 38.156 77.126 37.916 77.126C37.652 77.126 37.442 77.06 37.286 76.928C37.13 76.796 36.992 76.592 36.872 76.316L35.612 73.4L36.458 73.904H28.79L29.618 73.4L28.376 76.316C28.256 76.604 28.124 76.814 27.98 76.946C27.836 77.066 27.644 77.126 27.404 77.126ZM32.606 66.38L29.888 72.824L29.438 72.392H35.792L35.378 72.824L32.642 66.38H32.606ZM41.4679 77.126C41.1799 77.126 40.9579 77.048 40.8019 76.892C40.6459 76.724 40.5679 76.496 40.5679 76.208V69.008C40.5679 68.708 40.6459 68.48 40.8019 68.324C40.9579 68.168 41.1739 68.09 41.4499 68.09C41.7379 68.09 41.9539 68.168 42.0979 68.324C42.2539 68.48 42.3319 68.708 42.3319 69.008V70.484L42.1339 70.088C42.3739 69.452 42.7459 68.954 43.2499 68.594C43.7539 68.234 44.3599 68.054 45.0679 68.054C45.7999 68.054 46.3939 68.228 46.8499 68.576C47.3059 68.924 47.6179 69.458 47.7859 70.178H47.5339C47.7619 69.518 48.1519 69.002 48.7039 68.63C49.2559 68.246 49.8979 68.054 50.6299 68.054C51.3019 68.054 51.8539 68.186 52.2859 68.45C52.7179 68.702 53.0419 69.092 53.2579 69.62C53.4739 70.136 53.5819 70.79 53.5819 71.582V76.208C53.5819 76.496 53.4979 76.724 53.3299 76.892C53.1739 77.048 52.9519 77.126 52.6639 77.126C52.3759 77.126 52.1539 77.048 51.9979 76.892C51.8419 76.724 51.7639 76.496 51.7639 76.208V71.672C51.7639 70.928 51.6319 70.382 51.3679 70.034C51.1159 69.686 50.6959 69.512 50.1079 69.512C49.4479 69.512 48.9259 69.74 48.5419 70.196C48.1579 70.652 47.9659 71.282 47.9659 72.086V76.208C47.9659 76.496 47.8879 76.724 47.7319 76.892C47.5759 77.048 47.3539 77.126 47.0659 77.126C46.7779 77.126 46.5499 77.048 46.3819 76.892C46.2259 76.724 46.1479 76.496 46.1479 76.208V71.672C46.1479 70.928 46.0219 70.382 45.7699 70.034C45.5179 69.686 45.0979 69.512 44.5099 69.512C43.8499 69.512 43.3279 69.74 42.9439 70.196C42.5719 70.652 42.3859 71.282 42.3859 72.086V76.208C42.3859 76.82 42.0799 77.126 41.4679 77.126ZM60.8397 77.162C60.0717 77.162 59.4057 76.97 58.8417 76.586C58.2777 76.19 57.8997 75.668 57.7077 75.02L57.9057 74.696V76.208C57.9057 76.496 57.8277 76.724 57.6717 76.892C57.5157 77.048 57.2997 77.126 57.0237 77.126C56.7357 77.126 56.5137 77.048 56.3577 76.892C56.2017 76.724 56.1237 76.496 56.1237 76.208V65.102C56.1237 64.802 56.2017 64.574 56.3577 64.418C56.5137 64.262 56.7357 64.184 57.0237 64.184C57.3117 64.184 57.5337 64.262 57.6897 64.418C57.8577 64.574 57.9417 64.802 57.9417 65.102V70.142H57.7257C57.9177 69.506 58.2957 69.002 58.8597 68.63C59.4237 68.246 60.0837 68.054 60.8397 68.054C61.6317 68.054 62.3157 68.24 62.8917 68.612C63.4677 68.984 63.9117 69.506 64.2237 70.178C64.5477 70.85 64.7097 71.66 64.7097 72.608C64.7097 73.532 64.5477 74.342 64.2237 75.038C63.9117 75.722 63.4617 76.25 62.8737 76.622C62.2977 76.982 61.6197 77.162 60.8397 77.162ZM60.3897 75.758C60.8937 75.758 61.3317 75.638 61.7037 75.398C62.0757 75.158 62.3637 74.804 62.5677 74.336C62.7717 73.868 62.8737 73.292 62.8737 72.608C62.8737 71.576 62.6457 70.796 62.1897 70.268C61.7457 69.74 61.1457 69.476 60.3897 69.476C59.8977 69.476 59.4597 69.596 59.0757 69.836C58.7037 70.064 58.4157 70.412 58.2117 70.88C58.0077 71.348 57.9057 71.924 57.9057 72.608C57.9057 73.628 58.1337 74.408 58.5897 74.948C59.0457 75.488 59.6457 75.758 60.3897 75.758ZM67.6585 77.108C67.3705 77.108 67.1485 77.024 66.9925 76.856C66.8365 76.676 66.7585 76.43 66.7585 76.118V69.098C66.7585 68.786 66.8365 68.546 66.9925 68.378C67.1485 68.21 67.3705 68.126 67.6585 68.126C67.9465 68.126 68.1685 68.21 68.3245 68.378C68.4925 68.546 68.5765 68.786 68.5765 69.098V76.118C68.5765 76.43 68.4985 76.676 68.3425 76.856C68.1865 77.024 67.9585 77.108 67.6585 77.108ZM67.6585 66.254C67.2985 66.254 67.0165 66.164 66.8125 65.984C66.6205 65.804 66.5245 65.552 66.5245 65.228C66.5245 64.892 66.6205 64.64 66.8125 64.472C67.0165 64.292 67.2985 64.202 67.6585 64.202C68.0185 64.202 68.2945 64.292 68.4865 64.472C68.6905 64.64 68.7925 64.892 68.7925 65.228C68.7925 65.552 68.6905 65.804 68.4865 65.984C68.2945 66.164 68.0185 66.254 67.6585 66.254ZM75.2574 77.162C74.2974 77.162 73.4694 76.982 72.7734 76.622C72.0894 76.25 71.5554 75.728 71.1714 75.056C70.7994 74.372 70.6134 73.562 70.6134 72.626C70.6134 71.714 70.7994 70.916 71.1714 70.232C71.5434 69.548 72.0534 69.014 72.7014 68.63C73.3494 68.246 74.0874 68.054 74.9154 68.054C75.5274 68.054 76.0734 68.156 76.5534 68.36C77.0334 68.552 77.4414 68.84 77.7774 69.224C78.1254 69.596 78.3834 70.052 78.5514 70.592C78.7314 71.132 78.8214 71.738 78.8214 72.41C78.8214 72.614 78.7614 72.77 78.6414 72.878C78.5214 72.974 78.3414 73.022 78.1014 73.022H72.0534V71.906H77.5974L77.2914 72.158C77.2914 71.558 77.2014 71.048 77.0214 70.628C76.8534 70.208 76.5954 69.89 76.2474 69.674C75.9114 69.446 75.4914 69.332 74.9874 69.332C74.4234 69.332 73.9434 69.464 73.5474 69.728C73.1634 69.992 72.8694 70.358 72.6654 70.826C72.4614 71.294 72.3594 71.84 72.3594 72.464V72.572C72.3594 73.628 72.6054 74.426 73.0974 74.966C73.6014 75.494 74.3274 75.758 75.2754 75.758C75.6354 75.758 76.0134 75.71 76.4094 75.614C76.8174 75.518 77.2014 75.356 77.5614 75.128C77.7654 75.008 77.9454 74.954 78.1014 74.966C78.2694 74.978 78.4014 75.032 78.4974 75.128C78.6054 75.224 78.6714 75.344 78.6954 75.488C78.7194 75.632 78.6954 75.782 78.6234 75.938C78.5514 76.082 78.4254 76.214 78.2454 76.334C77.8374 76.61 77.3634 76.82 76.8234 76.964C76.2834 77.096 75.7614 77.162 75.2574 77.162ZM81.7034 77.126C81.4154 77.126 81.1934 77.048 81.0374 76.892C80.8814 76.724 80.8034 76.496 80.8034 76.208V69.008C80.8034 68.708 80.8814 68.48 81.0374 68.324C81.1934 68.168 81.4094 68.09 81.6854 68.09C81.9734 68.09 82.1894 68.168 82.3334 68.324C82.4894 68.48 82.5674 68.708 82.5674 69.008V70.412L82.3694 70.088C82.6334 69.416 83.0474 68.912 83.6114 68.576C84.1754 68.228 84.8234 68.054 85.5554 68.054C86.2514 68.054 86.8274 68.186 87.2834 68.45C87.7514 68.702 88.0994 69.092 88.3274 69.62C88.5554 70.136 88.6694 70.79 88.6694 71.582V76.208C88.6694 76.496 88.5914 76.724 88.4354 76.892C88.2794 77.048 88.0574 77.126 87.7694 77.126C87.4694 77.126 87.2414 77.048 87.0854 76.892C86.9294 76.724 86.8514 76.496 86.8514 76.208V71.69C86.8514 70.934 86.7014 70.382 86.4014 70.034C86.1134 69.686 85.6574 69.512 85.0334 69.512C84.3014 69.512 83.7134 69.74 83.2694 70.196C82.8374 70.652 82.6214 71.264 82.6214 72.032V76.208C82.6214 76.82 82.3154 77.126 81.7034 77.126ZM94.9185 77.162C94.1985 77.162 93.5925 77.036 93.1005 76.784C92.6085 76.532 92.2425 76.16 92.0025 75.668C91.7625 75.176 91.6425 74.576 91.6425 73.868V69.62H90.5625C90.3225 69.62 90.1365 69.56 90.0045 69.44C89.8725 69.308 89.8065 69.134 89.8065 68.918C89.8065 68.69 89.8725 68.516 90.0045 68.396C90.1365 68.276 90.3225 68.216 90.5625 68.216H91.6425V66.362C91.6425 66.062 91.7205 65.834 91.8765 65.678C92.0445 65.522 92.2725 65.444 92.5605 65.444C92.8485 65.444 93.0705 65.522 93.2265 65.678C93.3825 65.834 93.4605 66.062 93.4605 66.362V68.216H95.5665C95.8065 68.216 95.9925 68.276 96.1245 68.396C96.2565 68.516 96.3225 68.69 96.3225 68.918C96.3225 69.134 96.2565 69.308 96.1245 69.44C95.9925 69.56 95.8065 69.62 95.5665 69.62H93.4605V73.724C93.4605 74.36 93.5925 74.84 93.8565 75.164C94.1325 75.488 94.5765 75.65 95.1885 75.65C95.4045 75.65 95.5905 75.632 95.7465 75.596C95.9145 75.548 96.0525 75.518 96.1605 75.506C96.2925 75.506 96.4005 75.554 96.4845 75.65C96.5685 75.734 96.6105 75.902 96.6105 76.154C96.6105 76.334 96.5745 76.502 96.5025 76.658C96.4425 76.814 96.3285 76.916 96.1605 76.964C96.0165 77.012 95.8185 77.054 95.5665 77.09C95.3265 77.138 95.1105 77.162 94.9185 77.162ZM101.783 77.162C100.823 77.162 99.9948 76.982 99.2988 76.622C98.6148 76.25 98.0808 75.728 97.6968 75.056C97.3248 74.372 97.1388 73.562 97.1388 72.626C97.1388 71.714 97.3248 70.916 97.6968 70.232C98.0688 69.548 98.5788 69.014 99.2268 68.63C99.8748 68.246 100.613 68.054 101.441 68.054C102.053 68.054 102.599 68.156 103.079 68.36C103.559 68.552 103.967 68.84 104.303 69.224C104.651 69.596 104.909 70.052 105.077 70.592C105.257 71.132 105.347 71.738 105.347 72.41C105.347 72.614 105.287 72.77 105.167 72.878C105.047 72.974 104.867 73.022 104.627 73.022H98.5788V71.906H104.123L103.817 72.158C103.817 71.558 103.727 71.048 103.547 70.628C103.379 70.208 103.121 69.89 102.773 69.674C102.437 69.446 102.017 69.332 101.513 69.332C100.949 69.332 100.469 69.464 100.073 69.728C99.6888 69.992 99.3948 70.358 99.1908 70.826C98.9868 71.294 98.8848 71.84 98.8848 72.464V72.572C98.8848 73.628 99.1308 74.426 99.6228 74.966C100.127 75.494 100.853 75.758 101.801 75.758C102.161 75.758 102.539 75.71 102.935 75.614C103.343 75.518 103.727 75.356 104.087 75.128C104.291 75.008 104.471 74.954 104.627 74.966C104.795 74.978 104.927 75.032 105.023 75.128C105.131 75.224 105.197 75.344 105.221 75.488C105.245 75.632 105.221 75.782 105.149 75.938C105.077 76.082 104.951 76.214 104.771 76.334C104.363 76.61 103.889 76.82 103.349 76.964C102.809 77.096 102.287 77.162 101.783 77.162ZM114.883 77.162C114.271 77.162 113.719 77.042 113.227 76.802C112.747 76.562 112.369 76.238 112.093 75.83C111.817 75.422 111.679 74.96 111.679 74.444C111.679 73.796 111.841 73.286 112.165 72.914C112.501 72.53 113.047 72.26 113.803 72.104C114.571 71.936 115.603 71.852 116.899 71.852H117.745V72.968H116.917C116.053 72.968 115.369 73.01 114.865 73.094C114.361 73.178 114.001 73.322 113.785 73.526C113.581 73.718 113.479 73.988 113.479 74.336C113.479 74.792 113.635 75.164 113.947 75.452C114.259 75.728 114.691 75.866 115.243 75.866C115.687 75.866 116.077 75.764 116.413 75.56C116.749 75.344 117.013 75.056 117.205 74.696C117.409 74.336 117.511 73.922 117.511 73.454V71.384C117.511 70.7 117.367 70.208 117.079 69.908C116.791 69.608 116.317 69.458 115.657 69.458C115.273 69.458 114.871 69.506 114.451 69.602C114.043 69.698 113.617 69.86 113.173 70.088C112.969 70.184 112.795 70.214 112.651 70.178C112.507 70.142 112.393 70.064 112.309 69.944C112.225 69.812 112.177 69.674 112.165 69.53C112.165 69.374 112.201 69.224 112.273 69.08C112.357 68.936 112.495 68.828 112.687 68.756C113.215 68.504 113.737 68.324 114.253 68.216C114.769 68.108 115.255 68.054 115.711 68.054C116.515 68.054 117.175 68.18 117.691 68.432C118.219 68.684 118.609 69.068 118.861 69.584C119.113 70.1 119.239 70.766 119.239 71.582V76.208C119.239 76.496 119.167 76.724 119.023 76.892C118.879 77.048 118.669 77.126 118.393 77.126C118.129 77.126 117.919 77.048 117.763 76.892C117.607 76.724 117.529 76.496 117.529 76.208V75.038H117.691C117.595 75.482 117.415 75.866 117.151 76.19C116.899 76.502 116.581 76.742 116.197 76.91C115.813 77.078 115.375 77.162 114.883 77.162ZM122.679 77.126C122.391 77.126 122.169 77.048 122.013 76.892C121.857 76.724 121.779 76.496 121.779 76.208V69.008C121.779 68.708 121.857 68.48 122.013 68.324C122.169 68.168 122.385 68.09 122.661 68.09C122.949 68.09 123.165 68.168 123.309 68.324C123.465 68.48 123.543 68.708 123.543 69.008V70.484L123.345 70.088C123.585 69.452 123.957 68.954 124.461 68.594C124.965 68.234 125.571 68.054 126.279 68.054C127.011 68.054 127.605 68.228 128.061 68.576C128.517 68.924 128.829 69.458 128.997 70.178H128.745C128.973 69.518 129.363 69.002 129.915 68.63C130.467 68.246 131.109 68.054 131.841 68.054C132.513 68.054 133.065 68.186 133.497 68.45C133.929 68.702 134.253 69.092 134.469 69.62C134.685 70.136 134.793 70.79 134.793 71.582V76.208C134.793 76.496 134.709 76.724 134.541 76.892C134.385 77.048 134.163 77.126 133.875 77.126C133.587 77.126 133.365 77.048 133.209 76.892C133.053 76.724 132.975 76.496 132.975 76.208V71.672C132.975 70.928 132.843 70.382 132.579 70.034C132.327 69.686 131.907 69.512 131.319 69.512C130.659 69.512 130.137 69.74 129.753 70.196C129.369 70.652 129.177 71.282 129.177 72.086V76.208C129.177 76.496 129.099 76.724 128.943 76.892C128.787 77.048 128.565 77.126 128.277 77.126C127.989 77.126 127.761 77.048 127.593 76.892C127.437 76.724 127.359 76.496 127.359 76.208V71.672C127.359 70.928 127.233 70.382 126.981 70.034C126.729 69.686 126.309 69.512 125.721 69.512C125.061 69.512 124.539 69.74 124.155 70.196C123.783 70.652 123.597 71.282 123.597 72.086V76.208C123.597 76.82 123.291 77.126 122.679 77.126ZM138.235 80.366C137.947 80.366 137.725 80.288 137.569 80.132C137.413 79.976 137.335 79.748 137.335 79.448V69.008C137.335 68.708 137.413 68.48 137.569 68.324C137.725 68.168 137.941 68.09 138.217 68.09C138.505 68.09 138.727 68.168 138.883 68.324C139.039 68.48 139.117 68.708 139.117 69.008V70.574L138.919 70.196C139.111 69.548 139.489 69.032 140.053 68.648C140.617 68.252 141.283 68.054 142.051 68.054C142.831 68.054 143.509 68.24 144.085 68.612C144.673 68.984 145.123 69.506 145.435 70.178C145.759 70.85 145.921 71.66 145.921 72.608C145.921 73.532 145.759 74.342 145.435 75.038C145.123 75.722 144.679 76.25 144.103 76.622C143.527 76.982 142.843 77.162 142.051 77.162C141.295 77.162 140.635 76.97 140.071 76.586C139.507 76.202 139.129 75.692 138.937 75.056H139.153V79.448C139.153 79.748 139.069 79.976 138.901 80.132C138.745 80.288 138.523 80.366 138.235 80.366ZM141.601 75.758C142.105 75.758 142.543 75.638 142.915 75.398C143.287 75.158 143.575 74.804 143.779 74.336C143.983 73.868 144.085 73.292 144.085 72.608C144.085 71.576 143.857 70.796 143.401 70.268C142.957 69.74 142.357 69.476 141.601 69.476C141.109 69.476 140.671 69.596 140.287 69.836C139.915 70.064 139.627 70.412 139.423 70.88C139.219 71.348 139.117 71.924 139.117 72.608C139.117 73.628 139.345 74.408 139.801 74.948C140.257 75.488 140.857 75.758 141.601 75.758ZM150.795 77.162C149.859 77.162 149.151 76.892 148.671 76.352C148.203 75.8 147.969 75.008 147.969 73.976V65.102C147.969 64.802 148.047 64.574 148.203 64.418C148.359 64.262 148.581 64.184 148.869 64.184C149.157 64.184 149.379 64.262 149.535 64.418C149.703 64.574 149.787 64.802 149.787 65.102V73.868C149.787 74.468 149.907 74.918 150.147 75.218C150.399 75.506 150.759 75.65 151.227 75.65C151.335 75.65 151.431 75.65 151.515 75.65C151.599 75.638 151.683 75.626 151.767 75.614C151.911 75.602 152.013 75.644 152.073 75.74C152.133 75.824 152.163 76.004 152.163 76.28C152.163 76.532 152.109 76.73 152.001 76.874C151.893 77.006 151.719 77.09 151.479 77.126C151.371 77.138 151.257 77.144 151.137 77.144C151.017 77.156 150.903 77.162 150.795 77.162ZM157.199 77.162C156.311 77.162 155.543 76.976 154.895 76.604C154.259 76.232 153.761 75.704 153.401 75.02C153.041 74.336 152.861 73.532 152.861 72.608C152.861 71.9 152.963 71.27 153.167 70.718C153.371 70.166 153.659 69.692 154.031 69.296C154.415 68.888 154.871 68.582 155.399 68.378C155.939 68.162 156.539 68.054 157.199 68.054C158.075 68.054 158.831 68.24 159.467 68.612C160.115 68.984 160.619 69.512 160.979 70.196C161.339 70.868 161.519 71.672 161.519 72.608C161.519 73.304 161.417 73.934 161.213 74.498C161.009 75.062 160.715 75.542 160.331 75.938C159.959 76.334 159.503 76.64 158.963 76.856C158.435 77.06 157.847 77.162 157.199 77.162ZM157.199 75.758C157.691 75.758 158.123 75.638 158.495 75.398C158.867 75.158 159.155 74.804 159.359 74.336C159.575 73.868 159.683 73.292 159.683 72.608C159.683 71.576 159.455 70.796 158.999 70.268C158.543 69.74 157.943 69.476 157.199 69.476C156.695 69.476 156.257 69.596 155.885 69.836C155.513 70.064 155.219 70.412 155.003 70.88C154.799 71.348 154.697 71.924 154.697 72.608C154.697 73.628 154.925 74.408 155.381 74.948C155.837 75.488 156.443 75.758 157.199 75.758Z" fill="#0D3B66"/>
</svg>
