<svg width="72" height="72" viewBox="0 0 72 72" fill="none" xmlns="http://www.w3.org/2000/svg">
<rect width="72" height="72" rx="20" fill="#F4D35E"/>
<path d="M46.9297 46.9404C47.4277 46.4482 47.4649 45.6742 47.0413 45.1399L47.0277 45.0733L46.9181 44.9662L43.2328 41.3632L43.1752 41.2755L43.1468 41.2324L43.1102 41.1959C42.853 40.9399 42.5038 40.7977 42.1416 40.7977C41.7833 40.7977 41.4377 40.9369 41.1813 41.1878C38.1987 43.9181 33.6033 44.0654 30.4435 41.5291C27.2861 38.9946 26.5456 34.5708 28.7035 31.1883C30.8646 27.8008 35.2686 26.4988 38.9953 28.1606C42.718 29.8207 44.5923 33.9144 43.3956 37.7216L43.3955 37.722C43.2487 38.1904 43.3698 38.6979 43.7075 39.0523C44.044 39.4055 44.5435 39.5533 45.0181 39.4465C45.4929 39.3396 45.8802 38.9916 46.027 38.525C47.6283 33.4676 45.2068 28.0338 40.348 25.7342C35.4932 23.4364 29.6456 24.9485 26.5873 29.3053C23.5257 33.6666 24.185 39.5612 28.1322 43.1717C31.9678 46.68 37.7898 47.0101 42.0045 44.0164L44.9971 46.9422L44.9979 46.943C45.5325 47.4634 46.3923 47.4634 46.927 46.943L46.9297 46.9404Z" fill="#0D3B66" stroke="#0D3B66"/>
</svg>
