<svg width="170" height="106" viewBox="0 0 170 106" fill="none" xmlns="http://www.w3.org/2000/svg">
<rect opacity="0.1" x="1" y="1" width="168" height="104" rx="19" stroke="#0D3B66" stroke-width="2"/>
<path d="M28.412 77.126C28.112 77.126 27.878 77.042 27.71 76.874C27.554 76.706 27.476 76.472 27.476 76.172V65.264C27.476 64.952 27.56 64.718 27.728 64.562C27.896 64.394 28.13 64.31 28.43 64.31H32.732C34.1 64.31 35.156 64.652 35.9 65.336C36.644 66.008 37.016 66.956 37.016 68.18C37.016 69.416 36.644 70.376 35.9 71.06C35.156 71.732 34.1 72.068 32.732 72.068H29.348V76.172C29.348 76.472 29.27 76.706 29.114 76.874C28.958 77.042 28.724 77.126 28.412 77.126ZM29.348 70.574H32.462C33.362 70.574 34.04 70.376 34.496 69.98C34.964 69.572 35.198 68.972 35.198 68.18C35.198 67.4 34.964 66.812 34.496 66.416C34.04 66.008 33.362 65.804 32.462 65.804H29.348V70.574ZM42.527 77.162C41.567 77.162 40.739 76.982 40.043 76.622C39.359 76.25 38.825 75.728 38.441 75.056C38.069 74.372 37.883 73.562 37.883 72.626C37.883 71.714 38.069 70.916 38.441 70.232C38.813 69.548 39.323 69.014 39.971 68.63C40.619 68.246 41.357 68.054 42.185 68.054C42.797 68.054 43.343 68.156 43.823 68.36C44.303 68.552 44.711 68.84 45.047 69.224C45.395 69.596 45.653 70.052 45.821 70.592C46.001 71.132 46.091 71.738 46.091 72.41C46.091 72.614 46.031 72.77 45.911 72.878C45.791 72.974 45.611 73.022 45.371 73.022H39.323V71.906H44.867L44.561 72.158C44.561 71.558 44.471 71.048 44.291 70.628C44.123 70.208 43.865 69.89 43.517 69.674C43.181 69.446 42.761 69.332 42.257 69.332C41.693 69.332 41.213 69.464 40.817 69.728C40.433 69.992 40.139 70.358 39.935 70.826C39.731 71.294 39.629 71.84 39.629 72.464V72.572C39.629 73.628 39.875 74.426 40.367 74.966C40.871 75.494 41.597 75.758 42.545 75.758C42.905 75.758 43.283 75.71 43.679 75.614C44.087 75.518 44.471 75.356 44.831 75.128C45.035 75.008 45.215 74.954 45.371 74.966C45.539 74.978 45.671 75.032 45.767 75.128C45.875 75.224 45.941 75.344 45.965 75.488C45.989 75.632 45.965 75.782 45.893 75.938C45.821 76.082 45.695 76.214 45.515 76.334C45.107 76.61 44.633 76.82 44.093 76.964C43.553 77.096 43.031 77.162 42.527 77.162ZM55.2369 80.366C54.9489 80.366 54.7269 80.288 54.5709 80.132C54.4149 79.976 54.3369 79.748 54.3369 79.448V75.056H54.5349C54.3429 75.692 53.9649 76.202 53.4009 76.586C52.8489 76.97 52.1889 77.162 51.4209 77.162C50.6529 77.162 49.9749 76.982 49.3869 76.622C48.8109 76.25 48.3609 75.722 48.0369 75.038C47.7129 74.342 47.5509 73.532 47.5509 72.608C47.5509 71.66 47.7129 70.85 48.0369 70.178C48.3609 69.506 48.8109 68.984 49.3869 68.612C49.9749 68.24 50.6529 68.054 51.4209 68.054C52.2009 68.054 52.8669 68.252 53.4189 68.648C53.9829 69.032 54.3609 69.548 54.5529 70.196L54.3549 70.574V69.008C54.3549 68.708 54.4329 68.48 54.5889 68.324C54.7449 68.168 54.9669 68.09 55.2549 68.09C55.5429 68.09 55.7649 68.168 55.9209 68.324C56.0769 68.48 56.1549 68.708 56.1549 69.008V79.448C56.1549 79.748 56.0709 79.976 55.9029 80.132C55.7469 80.288 55.5249 80.366 55.2369 80.366ZM51.8889 75.758C52.3809 75.758 52.8129 75.638 53.1849 75.398C53.5569 75.158 53.8449 74.804 54.0489 74.336C54.2649 73.868 54.3729 73.292 54.3729 72.608C54.3729 71.576 54.1449 70.796 53.6889 70.268C53.2329 69.74 52.6329 69.476 51.8889 69.476C51.3849 69.476 50.9469 69.596 50.5749 69.836C50.2029 70.064 49.9089 70.412 49.6929 70.88C49.4889 71.348 49.3869 71.924 49.3869 72.608C49.3869 73.628 49.6149 74.408 50.0709 74.948C50.5269 75.488 51.1329 75.758 51.8889 75.758ZM61.8397 77.162C61.1317 77.162 60.5377 77.03 60.0577 76.766C59.5897 76.502 59.2357 76.112 58.9957 75.596C58.7677 75.068 58.6537 74.408 58.6537 73.616V69.008C58.6537 68.696 58.7317 68.468 58.8877 68.324C59.0437 68.168 59.2657 68.09 59.5537 68.09C59.8417 68.09 60.0637 68.168 60.2197 68.324C60.3877 68.468 60.4717 68.696 60.4717 69.008V73.634C60.4717 74.342 60.6157 74.864 60.9037 75.2C61.1917 75.536 61.6477 75.704 62.2717 75.704C62.9557 75.704 63.5077 75.476 63.9277 75.02C64.3597 74.552 64.5757 73.94 64.5757 73.184V69.008C64.5757 68.696 64.6537 68.468 64.8097 68.324C64.9657 68.168 65.1937 68.09 65.4937 68.09C65.7817 68.09 66.0037 68.168 66.1597 68.324C66.3157 68.468 66.3937 68.696 66.3937 69.008V76.208C66.3937 76.82 66.0997 77.126 65.5117 77.126C65.2357 77.126 65.0197 77.048 64.8637 76.892C64.7077 76.724 64.6297 76.496 64.6297 76.208V74.678L64.8637 75.074C64.6237 75.746 64.2397 76.262 63.7117 76.622C63.1837 76.982 62.5597 77.162 61.8397 77.162ZM73.0777 77.162C72.1177 77.162 71.2897 76.982 70.5937 76.622C69.9097 76.25 69.3757 75.728 68.9917 75.056C68.6197 74.372 68.4337 73.562 68.4337 72.626C68.4337 71.714 68.6197 70.916 68.9917 70.232C69.3637 69.548 69.8737 69.014 70.5217 68.63C71.1697 68.246 71.9077 68.054 72.7357 68.054C73.3477 68.054 73.8937 68.156 74.3737 68.36C74.8537 68.552 75.2617 68.84 75.5977 69.224C75.9457 69.596 76.2037 70.052 76.3717 70.592C76.5517 71.132 76.6417 71.738 76.6417 72.41C76.6417 72.614 76.5817 72.77 76.4617 72.878C76.3417 72.974 76.1617 73.022 75.9217 73.022H69.8737V71.906H75.4177L75.1117 72.158C75.1117 71.558 75.0217 71.048 74.8417 70.628C74.6737 70.208 74.4157 69.89 74.0677 69.674C73.7317 69.446 73.3117 69.332 72.8077 69.332C72.2437 69.332 71.7637 69.464 71.3677 69.728C70.9837 69.992 70.6897 70.358 70.4857 70.826C70.2817 71.294 70.1797 71.84 70.1797 72.464V72.572C70.1797 73.628 70.4257 74.426 70.9177 74.966C71.4217 75.494 72.1477 75.758 73.0957 75.758C73.4557 75.758 73.8337 75.71 74.2297 75.614C74.6377 75.518 75.0217 75.356 75.3817 75.128C75.5857 75.008 75.7657 74.954 75.9217 74.966C76.0897 74.978 76.2217 75.032 76.3177 75.128C76.4257 75.224 76.4917 75.344 76.5157 75.488C76.5397 75.632 76.5157 75.782 76.4437 75.938C76.3717 76.082 76.2457 76.214 76.0657 76.334C75.6577 76.61 75.1837 76.82 74.6437 76.964C74.1037 77.096 73.5817 77.162 73.0777 77.162ZM79.5237 77.126C79.2357 77.126 79.0137 77.048 78.8577 76.892C78.7017 76.724 78.6237 76.496 78.6237 76.208V69.008C78.6237 68.708 78.7017 68.48 78.8577 68.324C79.0137 68.168 79.2297 68.09 79.5057 68.09C79.7937 68.09 80.0097 68.168 80.1537 68.324C80.3097 68.48 80.3877 68.708 80.3877 69.008V70.412L80.1897 70.088C80.4537 69.416 80.8677 68.912 81.4317 68.576C81.9957 68.228 82.6437 68.054 83.3757 68.054C84.0717 68.054 84.6477 68.186 85.1037 68.45C85.5717 68.702 85.9197 69.092 86.1477 69.62C86.3757 70.136 86.4897 70.79 86.4897 71.582V76.208C86.4897 76.496 86.4117 76.724 86.2557 76.892C86.0997 77.048 85.8777 77.126 85.5897 77.126C85.2897 77.126 85.0617 77.048 84.9057 76.892C84.7497 76.724 84.6717 76.496 84.6717 76.208V71.69C84.6717 70.934 84.5217 70.382 84.2217 70.034C83.9337 69.686 83.4777 69.512 82.8537 69.512C82.1217 69.512 81.5337 69.74 81.0897 70.196C80.6577 70.652 80.4417 71.264 80.4417 72.032V76.208C80.4417 76.82 80.1357 77.126 79.5237 77.126ZM89.8948 77.108C89.6068 77.108 89.3848 77.024 89.2288 76.856C89.0728 76.676 88.9948 76.43 88.9948 76.118V69.098C88.9948 68.786 89.0728 68.546 89.2288 68.378C89.3848 68.21 89.6068 68.126 89.8948 68.126C90.1828 68.126 90.4048 68.21 90.5608 68.378C90.7288 68.546 90.8128 68.786 90.8128 69.098V76.118C90.8128 76.43 90.7348 76.676 90.5788 76.856C90.4228 77.024 90.1948 77.108 89.8948 77.108ZM89.8948 66.254C89.5348 66.254 89.2528 66.164 89.0488 65.984C88.8568 65.804 88.7608 65.552 88.7608 65.228C88.7608 64.892 88.8568 64.64 89.0488 64.472C89.2528 64.292 89.5348 64.202 89.8948 64.202C90.2548 64.202 90.5308 64.292 90.7228 64.472C90.9268 64.64 91.0288 64.892 91.0288 65.228C91.0288 65.552 90.9268 65.804 90.7228 65.984C90.5308 66.164 90.2548 66.254 89.8948 66.254ZM94.2718 77.126C93.9838 77.126 93.7618 77.048 93.6058 76.892C93.4498 76.724 93.3718 76.496 93.3718 76.208V69.008C93.3718 68.708 93.4498 68.48 93.6058 68.324C93.7618 68.168 93.9778 68.09 94.2538 68.09C94.5418 68.09 94.7578 68.168 94.9018 68.324C95.0578 68.48 95.1358 68.708 95.1358 69.008V70.412L94.9378 70.088C95.2018 69.416 95.6158 68.912 96.1798 68.576C96.7438 68.228 97.3918 68.054 98.1238 68.054C98.8198 68.054 99.3958 68.186 99.8518 68.45C100.32 68.702 100.668 69.092 100.896 69.62C101.124 70.136 101.238 70.79 101.238 71.582V76.208C101.238 76.496 101.16 76.724 101.004 76.892C100.848 77.048 100.626 77.126 100.338 77.126C100.038 77.126 99.8098 77.048 99.6538 76.892C99.4978 76.724 99.4198 76.496 99.4198 76.208V71.69C99.4198 70.934 99.2698 70.382 98.9698 70.034C98.6818 69.686 98.2258 69.512 97.6018 69.512C96.8698 69.512 96.2818 69.74 95.8378 70.196C95.4058 70.652 95.1898 71.264 95.1898 72.032V76.208C95.1898 76.82 94.8838 77.126 94.2718 77.126ZM107.559 77.162C106.671 77.162 105.903 76.976 105.255 76.604C104.619 76.232 104.121 75.704 103.761 75.02C103.401 74.336 103.221 73.532 103.221 72.608C103.221 71.9 103.323 71.27 103.527 70.718C103.731 70.166 104.019 69.692 104.391 69.296C104.775 68.888 105.231 68.582 105.759 68.378C106.299 68.162 106.899 68.054 107.559 68.054C108.435 68.054 109.191 68.24 109.827 68.612C110.475 68.984 110.979 69.512 111.339 70.196C111.699 70.868 111.879 71.672 111.879 72.608C111.879 73.304 111.777 73.934 111.573 74.498C111.369 75.062 111.075 75.542 110.691 75.938C110.319 76.334 109.863 76.64 109.323 76.856C108.795 77.06 108.207 77.162 107.559 77.162ZM107.559 75.758C108.051 75.758 108.483 75.638 108.855 75.398C109.227 75.158 109.515 74.804 109.719 74.336C109.935 73.868 110.043 73.292 110.043 72.608C110.043 71.576 109.815 70.796 109.359 70.268C108.903 69.74 108.303 69.476 107.559 69.476C107.055 69.476 106.617 69.596 106.245 69.836C105.873 70.064 105.579 70.412 105.363 70.88C105.159 71.348 105.057 71.924 105.057 72.608C105.057 73.628 105.285 74.408 105.741 74.948C106.197 75.488 106.803 75.758 107.559 75.758Z" fill="#0D3B66"/>
<circle cx="32" cy="37" r="6" fill="#0D3B66"/>
<circle opacity="0.2" cx="47" cy="37" r="6" fill="#0D3B66"/>
<circle opacity="0.2" cx="62" cy="37" r="6" fill="#0D3B66"/>
</svg>
